<svg id="_0336_ecology" xmlns="http://www.w3.org/2000/svg" xmlns:xlink="http://www.w3.org/1999/xlink" viewBox="0 0 500 500" data-imageid="ecology-98" imageName="Ecology" class="illustrations_image" style="width: 166px;"><defs><style>.cls-1_ecology-98{fill:url(#linear-gradient);}.cls-1_ecology-98,.cls-2_ecology-98,.cls-3_ecology-98,.cls-4_ecology-98,.cls-5_ecology-98,.cls-6_ecology-98,.cls-7_ecology-98,.cls-8_ecology-98,.cls-9_ecology-98{stroke-width:0px;}.cls-2_ecology-98{isolation:isolate;opacity:.18;}.cls-2_ecology-98,.cls-9_ecology-98{fill:#68e1fd;}.cls-3_ecology-98{fill:url(#linear-gradient-4-ecology-98);}.cls-4_ecology-98{fill:url(#linear-gradient-2-ecology-98);}.cls-5_ecology-98{fill:url(#linear-gradient-3-ecology-98);}.cls-6_ecology-98{fill:url(#linear-gradient-5-ecology-98);}.cls-7_ecology-98{fill:#faaf90;}.cls-8_ecology-98{fill:#231f20;}</style><linearGradient id="linear-gradient-ecology-98" x1="280.01" y1="1961.09" x2="367.38" y2="1961.09" gradientTransform="translate(-39 2040.66) scale(1 -1)" gradientUnits="userSpaceOnUse"><stop offset=".02" stop-color="#fff" stop-opacity="0"/><stop offset=".32" stop-color="#fff" stop-opacity=".39"/><stop offset=".68" stop-color="#fff" stop-opacity=".68"/><stop offset="1" stop-color="#fff"/></linearGradient><linearGradient id="linear-gradient-2-ecology-98" x1="310.38" y1="1741.89" x2="483.15" y2="1664.42" xlink:href="#linear-gradient-ecology-98"/><linearGradient id="linear-gradient-3-ecology-98" x1="141.24" y1="1645.91" x2="276.46" y2="1745.49" gradientTransform="translate(-39 2040.66) scale(1 -1)" gradientUnits="userSpaceOnUse"><stop offset="0" stop-color="#231f20" stop-opacity="0"/><stop offset="1" stop-color="#231f20"/></linearGradient><linearGradient id="linear-gradient-4-ecology-98" x1="276.87" y1="1863.97" x2="264.58" y2="1484.13" xlink:href="#linear-gradient-3-ecology-98"/><linearGradient id="linear-gradient-5-ecology-98" x1="194.94" y1="1510.97" x2="187.57" y2="1763.58" xlink:href="#linear-gradient-3-ecology-98"/></defs><g id="background_ecology-98"><path class="cls-2_ecology-98 targetColor" d="M482.63,366.41c-3.82,16-9.31,31.84-19.03,45.11-14.78,20.18-37.89,32.5-61.05,41.95-19.1,7.78-39.17,14.15-59.79,14.49-28.01.47-55.19-10.16-83.21-10.89-33.14-.86-65.22,12.15-98.28,14.02-34.87,1.85-69.28-8.64-97.2-29.62-6.27-4.73-12.12-9.99-17.5-15.71-11.74-12.3-20.84-26.88-26.72-42.83-2.87-8.08-4.98-16.41-6.29-24.88-2.19-13.55-2.78-27.43-3.01-41.21-.72-43.63,2.95-90.41,29.81-124.81,9.43-12.07,21.3-21.99,33.05-31.81l64.88-54.16c16.97-14.17,34.02-28.39,52.94-39.84,20.91-12.65,43.78-21.71,66.71-30.19,10.17-3.75,20.5-7.44,31.29-8.61,23.63-2.56,46.93,7.28,67.2,19.69,19.02,11.63,37.31,26.73,45.14,47.65,6.58,17.51,5.04,36.97,8.93,55.29,8.1,38.25,39.13,66.17,58.42,98.92,20.95,35.57,23.13,77.75,13.71,117.44Z" style="fill: rgb(104, 225, 253);"/></g><g id="sun_ecology-98"><circle class="cls-9_ecology-98 targetColor" cx="284.23" cy="75.93" r="27.66" style="fill: rgb(104, 225, 253);"/><path class="cls-1_ecology-98" d="M242.63,58.15c8.88,14.22,8.24,32.41-1.62,45.98,6.71.46,13.49,1.86,19.29,5.27s10.54,9.01,11.78,15.62c10.75-14.79,31.2-18.58,46.54-8.63-1.14-9.67-6.67-19.27-3.95-28.63,2.01-6.86,8-11.76,13.71-16.16-10.45-7.29-15.96-19.8-14.27-32.43-5.6,4.7-13.66,5.71-20.74,3.97-5.93-1.51-9.65-5.41-14.86-7.94-3.43-1.66-2.55-1.54-4.96,1.47-1.7,2.11-2.98,4.5-4.79,6.56-3.42,3.9-7.46,7.19-11.97,9.76-1.34.75-13.18,6.69-14.16,5.17Z"/></g><g id="ecology_ecology-98"><path class="cls-9_ecology-98 targetColor" d="M185.44,148.39c-2.6.24-4.87,1.85-5.94,4.23-1.02,2.37-1.13,5.03-.31,7.47.41.92.6,1.92.57,2.93-.21.84-.6,1.62-1.14,2.29-2.03,2.75-3.18,6.05-3.31,9.46,0,3.43,1.95,6.91,5.14,8.06-2.03,4.27-2.09,9.76.89,13.44,2.98,3.68,9.3,4.49,12.46.96,2.32,4.3,7.68,5.91,11.98,3.59,2.26-1.22,3.88-3.36,4.44-5.87,2.99,1.68,7.06.27,9.03-2.54,1.84-2.96,2.22-6.59,1.05-9.87-1.18-3.23-2.92-6.23-5.15-8.85,2.45-1.85,5.01-3.83,6.17-6.66s.32-6.75-2.54-7.85c3.3-5,1.93-11.74-3.08-15.04-2.19-1.45-4.83-2.05-7.44-1.7-2.21.25-3.85,1.54-6.03.59-1.69-.74-2.73-2.98-4.14-4.14-6.24-5.07-16.49,1.57-12.65,9.51Z" style="fill: rgb(104, 225, 253);"/><path class="cls-9_ecology-98 targetColor" d="M349.9,269.55c-2.64,61.29-54.47,108.84-115.76,106.2-57.6-2.48-103.72-48.61-106.2-106.2h221.96Z" style="fill: rgb(104, 225, 253);"/><path class="cls-4_ecology-98" d="M304.5,269.55s-16.32,87.19-33.81,90.35c-17.49,3.17,33.81,6.75,59.62-32.58,22.46-34.21,19.58-57.77,19.58-57.77h-45.39Z"/><path class="cls-5_ecology-98" d="M158.63,270.16s9.02,82.36,62.7,90.56c53.68,8.19,68.43,1.65,68.43,1.65,0,0-33.14,32.78-78.27,20.48-45.13-12.3-70.26-60.49-70.26-60.49,0,0-14.54-40.3-13.31-52.8l30.72.61Z"/><g id="o1A6vW_ecology-98"><path class="cls-3_ecology-98" d="M195.46,277.93c.23-.32.56-.88.96-1.38,1.07-1.45,2.16-1.39,2.85.32,1.14,2.78,2.47,5.59,1.63,8.71-.38.93-.86,1.81-1.44,2.63-1.75,3.15-5.81,5.34-4.11,9.92.15.43.11.91-.11,1.31-1.44,2.11-.51,3.7.77,5.53,1.78,2.55,3.04,5.47,4.87,8,2.62,3.57,4.13,8,8.08,10.5,1.92,1.21,4.01,2.21,5.82,3.55.97.75,1.63,1.81,1.89,3.01.43,3.15.43,6.37.77,9.54.26,2.55.87,5.09,1.14,7.63.26,1.44.23,2.92-.09,4.34-.74,2.08-.76,4.35-.06,6.45.62,1.87,1.14,3.78,1.7,5.71,1.67,5.25,9.44,9.14,14.96,7.49l-5.87-2.96c1.06-1.14,1.89-1.98,2.81-2.95l-2.43-1.46,2.29-1.37c-.25-1.09-.5-2.21-.8-3.58l3.43.55c.13-.93.24-1.71.38-2.67,2.18-.22,4.38-.4,6.86-.63-.25-1.46-.49-2.82-.74-4.18,3.73,1.06,5.99.17,8.45-2.99,1.1-1.22,2.27-2.36,3.52-3.43,1.61-1.61,3.43-3.1,3.43-5.71,0-.4.95-.94,1.54-1.2,2.96-1.23,5.53-3.5,9.14-3.2.54,0,1.35-.75,1.68-1.37,1.7-3.28,3.35-6.62,4.94-9.95.25-.64.31-1.35.17-2.02-.23-1.69-.61-3.36,1.69-3.99.34-.1.57-.69.85-1.05,1.38-1.95,2.72-3.95,4.18-5.84,1.14-1.44,1.42-5.51.29-6.86-.23-.26-.69-.58-.91-.53-2.38.66-3.69-1.02-5.1-2.29-1.1-1.08-2.68-1.51-4.17-1.14-1.21.23-2.58-.54-3.85-.4-2.61.26-4.06-1.49-5.89-2.8-1.42-1.01-3.28-1.9-4.88.19-2.29-1.43-4.01-3.15-4.29-5.87-.11-3.38-2.49-6.26-5.79-7.01-1.44-.37-2.94-.47-4.41-.29-1.42.32-2.91-.23-3.77-1.41-1.42-1.81-2.66-3.91-5.3-4.39-.42,0-.97-.82-1.06-1.34-.14-1.26-1.05-2.31-2.29-2.62-.62-.2-1.26-.34-1.91-.42-.76-.11-1.53-.11-2.29,0-3.01.44-6.08-.39-8.46-2.29-3.73-2.86-9.91-1.37-12.57,2.5l-.11.16c-.56.8-1.14,1.61-1.76,2.47-.76-.67-1.59-1.28-2.46-1.81-1.21-.61-2.41-1.14-3.78.06-.85.38-1.83.3-2.61-.21-.21-.17,1.51-5.15,1.34-5.33h-7.61c.1.33,3.43,5.5,3.53,5.71l5.01,2.63Z"/></g><path class="cls-7_ecology-98" d="M310.82,355.09c-2.11,4.46-5.71,8-9.38,11.29-8.68,8.04-18.19,15.13-28.38,21.14-6.1,3.56-12.53,6.55-19.19,8.91-30.16,10.58-63.38,6.5-94.67,0-15.69-3.26-31.91-7.1-47.57-3.7-10.29,2.23-19.62,7.43-28.8,12.57l-36.32,20.39c-6.2-6.55-11.7-13.74-16.4-21.44-4.14-6.75-7.58-13.9-10.29-21.34-2.87-8.08-4.98-16.41-6.29-24.88,6.15-2.91,16.23-2.05,21.91-3.12,12.38-2.35,24.49-5.99,36.57-9.61l33.53-10.08c6.31-1.9,12.57-3.79,18.73-6.23,5.65-2.29,11.12-4.97,16.96-6.65,9.31-2.69,19.15-2.64,28.83-2.59l48.13.29c.92-.08,1.85.09,2.67.5,2.16,1.35,1.14,4.72-.45,6.7-6.65,8.37-18.07,11.1-28.67,12.17-3.14.32-6.39.57-9.2,1.99-2.81,1.42-5.14,4.37-4.77,7.5.54,4.73,6.16,6.77,10.82,7.71,13.65,2.72,27.41,4.8,41.28,6.25,7.74.79,15.58,1.35,23.27.19,20.34-3.04,37.3-17.65,57.38-22.08,2.78,4.08,2.39,9.67.27,14.11Z"/><ellipse class="cls-8_ecology-98" cx="238.57" cy="270.16" rx="110.8" ry="7.06"/><path class="cls-8_ecology-98" d="M206.17,253.69c5.93-1.29,11.95-2.1,18.01-2.43,8.23-.61,16.57-.99,24.66.63,5.34,1.25,10.6,2.85,15.73,4.81,21.65,7.5,44.08,12.54,66.86,15.02-42.88,1.46-85.78,0-128.62-2.09-5.87-.3-11.73-.61-17.59-.93-4.48-.24-12.21.75-16.07-1.21,2.54-4.06,12.07-5.04,16.33-6.65,6.83-2.56,13.55-5.44,20.69-7.14Z"/><path class="cls-8_ecology-98" d="M212,255.42s-2.77-62.7-16-84.82l3.99-1.84s18.75,86.35,19.06,87.28-2.45,3.68-7.05-.62Z"/><path class="cls-9_ecology-98 targetColor" d="M251.61,148.75c-2.51-.7-5.21.01-7.05,1.85-1.79,1.85-2.83,4.29-2.94,6.86.06,1.01-.12,2.02-.5,2.95-.49.72-1.13,1.33-1.87,1.77-2.87,1.86-5.12,4.53-6.46,7.68-1.14,3.19-.62,7.15,1.97,9.36-3.43,3.27-5.42,8.38-3.94,12.88s7.12,7.5,11.31,5.3c.64,4.84,5.09,8.25,9.93,7.61,2.55-.34,4.83-1.77,6.24-3.93,2.21,2.63,6.51,2.75,9.35.82,2.77-2.12,4.42-5.38,4.48-8.87.04-3.44-.53-6.85-1.68-10.09,2.94-.86,6.03-1.81,8.13-4.05s2.7-6.19.4-8.24c4.88-3.48,6.02-10.26,2.54-15.14-1.55-2.17-3.84-3.7-6.44-4.29-2.15-.55-4.15.08-5.85-1.58-1.31-1.29-1.49-3.76-2.4-5.34-4.05-6.93-15.98-4.35-15.21,4.43Z" style="fill: rgb(104, 225, 253);"/><path class="cls-8_ecology-98" d="M253.58,200.89c-.08-2.1-.14-4.34.94-6.15.68-1.01,1.51-1.9,2.48-2.64,1.57-1.41,3.29-2.65,5.13-3.68,1.86-1.03,4.01-1.43,6.11-1.14-2.34,2.15-5.71,2.87-8.16,4.86-2.8,2.4-4.97,5.45-6.31,8.88-1.86,6.16-1.95,13.6-2.91,19.99-.96,6.39-1.92,12.97-2.89,19.43-1.01,6.86-2.77,13.95-3.04,20.86,0,.97-3.61,2.58-6.4-3.07,3.43-10.29,6.26-20.77,8.85-31.27,2.18-8.95,4.11-17.99,5.45-27.11.61-4.11,1.63-8.8,1.42-12.96-.24-4.4-4.88-8.71-8.58-10.59-.25-.14-.51-.26-.78-.38-.39.27-.09.89.23,1.26,2.81,3.13,6.59,5.63,8.07,9.58.39,1.04.59,2.14.95,3.19-.23-.67.59-2.64.49-3.61-.19-1.29-.29-2.6-.3-3.91.05-3.06-.18-6.12-.67-9.14l4.39-.31s-1.85,12.34-4.14,27.81"/><path class="cls-9_ecology-98 targetColor" d="M301.19,157.19c-2.51-.7-5.21,0-7.05,1.85-1.79,1.85-2.83,4.29-2.94,6.86.05,1.01-.12,2.01-.5,2.95-.49.72-1.13,1.33-1.87,1.77-2.87,1.86-5.12,4.53-6.46,7.67-1.14,3.2-.63,7.17,1.97,9.37-3.43,3.27-5.42,8.38-3.94,12.88s7.12,7.5,11.31,5.3c.64,4.84,5.09,8.25,9.93,7.61,2.55-.34,4.83-1.77,6.24-3.93,2.21,2.63,6.51,2.75,9.35.82,2.76-2.12,4.41-5.39,4.48-8.87.04-3.44-.54-6.85-1.69-10.09,2.95-.86,6.03-1.81,8.14-4.05s2.69-6.19.4-8.24c4.88-3.48,6.02-10.26,2.54-15.14-1.55-2.17-3.84-3.7-6.44-4.29-2.15-.55-4.15.08-5.85-1.58-1.33-1.29-1.5-3.76-2.4-5.34-4.05-6.91-15.98-4.35-15.21,4.43Z" style="fill: rgb(104, 225, 253);"/><path class="cls-8_ecology-98" d="M303.15,209.32c-.08-2.1-.14-4.34.93-6.15.68-1.01,1.52-1.9,2.49-2.64,1.57-1.41,3.29-2.65,5.13-3.68,1.86-1.03,4.01-1.43,6.11-1.14-2.34,2.15-5.71,2.87-8.16,4.86-2.8,2.4-4.97,5.45-6.32,8.88-1.85,6.16-1.94,13.6-2.9,19.99-.96,6.39-1.93,12.97-2.89,19.43-1.01,6.86-2.77,13.95-3.05,20.86,0,.97-3.6,2.58-6.39-3.07,3.43-10.29,6.26-20.77,8.83-31.27,2.19-8.95,4.13-17.99,5.46-27.11.59-4.11,1.63-8.8,1.41-12.96-.23-4.4-4.88-8.71-8.57-10.59-.25-.14-.51-.26-.78-.38-.39.27-.1.89.23,1.26,2.81,3.13,6.59,5.63,8.07,9.58.39,1.04.59,2.14.95,3.19-.23-.67.59-2.64.48-3.61-.18-1.3-.27-2.6-.3-3.91.06-3.06-.17-6.12-.67-9.14l4.4-.31s-1.85,12.34-4.16,27.81"/><path class="cls-9_ecology-98 targetColor" d="M268.02,205.66c-1.4-.39-2.91,0-3.93,1.04-1,1.03-1.59,2.4-1.65,3.84.03.56-.07,1.13-.29,1.65-.27.4-.62.74-1.04.99-1.6,1.04-2.86,2.53-3.61,4.29-.71,1.82-.26,3.88,1.14,5.23-2.02,1.79-2.87,4.57-2.19,7.19.82,2.51,3.97,4.19,6.31,2.97.37,2.71,2.86,4.6,5.57,4.23,1.42-.19,2.68-.99,3.47-2.19,1.39,1.42,3.6,1.61,5.22.47,1.54-1.19,2.46-3.01,2.5-4.95.02-1.92-.3-3.83-.94-5.65,1.7-.34,3.28-1.13,4.57-2.29,1.14-1.25,1.5-3.43.23-4.57,2.72-1.98,3.31-5.78,1.34-8.49-.86-1.18-2.11-2.01-3.52-2.34-1.2-.31-2.29,0-3.27-.88-.74-.72-.83-2.1-1.35-2.98-2.33-3.91-8.98-2.47-8.57,2.43Z" style="fill: rgb(104, 225, 253);"/><path class="cls-8_ecology-98" d="M269.12,234.79c-.15-1.17.03-2.36.53-3.43.37-.57.84-1.07,1.38-1.47.87-.79,1.84-1.48,2.87-2.06,1.04-.58,2.25-.8,3.43-.64-1.3,1.14-3.18,1.6-4.57,2.71-1.56,1.34-2.78,3.04-3.53,4.96-1.03,3.43-1.09,7.6-1.62,11.17l-1.61,10.87c-.56,3.82-1.54,7.81-1.7,11.66,0,.55-2.01,1.44-3.57-1.71,1.89-5.71,3.5-11.6,4.94-17.47,1.22-4.99,2.29-10.05,3.04-15.14.5-2.38.76-4.8.79-7.23-.13-2.46-2.72-4.87-4.79-5.92l-.43-.22c-.22.16,0,.5.13.71,1.58,1.75,3.69,3.14,4.51,5.35.22.58.33,1.14.53,1.78-.13-.38.33-1.47.27-2.01-.1-.73-.16-1.46-.17-2.19.03-1.71-.09-3.43-.38-5.12l2.46-.17-2.29,15.53"/><path class="cls-9_ecology-98 targetColor" d="M328.98,206.64c-1.39-.63-3.02-.46-4.25.45-1.2.92-2.01,2.25-2.29,3.74-.06.59-.25,1.15-.55,1.66-.34.38-.77.68-1.25.87-1.83.83-3.37,2.18-4.42,3.89-1.03,1.76-.91,3.97.32,5.6-2.39,1.54-3.71,4.29-3.43,7.12.47,2.74,3.43,4.97,6.09,4.07-.05,2.87,2.23,5.23,5.1,5.28,1.51.03,2.95-.6,3.95-1.72,1.23,1.68,3.49,2.23,5.35,1.3,1.81-.98,3.07-2.73,3.43-4.75.32-1.99.29-4.02-.09-6,1.8-.08,3.55-.65,5.06-1.63,1.42-1.14,2.1-3.35.96-4.73,3.13-1.62,4.36-5.46,2.74-8.59-.7-1.36-1.88-2.43-3.3-3-1.14-.5-2.41-.31-3.25-1.43-.66-.87-.54-2.29-.93-3.3-1.79-4.41-8.91-3.97-9.26,1.2Z" style="fill: rgb(104, 225, 253);"/><path class="cls-8_ecology-98" d="M325.54,237.03c.03-1.22.4-2.41,1.07-3.43.48-.53,1.05-.97,1.68-1.31,1.03-.68,2.13-1.24,3.29-1.68,1.17-.43,2.45-.48,3.65-.13-1.54,1.04-3.54,1.14-5.15,2.1-1.84,1.13-3.36,2.7-4.45,4.57-1.62,3.43-2.29,7.7-3.43,11.33l-3.43,11.03c-1.14,3.87-2.83,7.85-3.6,11.83-.1.56-2.29,1.14-3.43-2.29,2.87-5.71,5.46-11.49,7.87-17.36,2.06-4.99,3.97-10.06,5.54-15.23.89-2.4,1.54-4.87,1.95-7.39.25-2.56-2.06-5.47-4.03-6.86l-.42-.29c-.25.13-.14.51,0,.75,1.36,2.06,3.33,3.84,3.84,6.26.13.63.15,1.29.26,1.93-.07-.41.58-1.49.61-2.06,0-.76.06-1.53.17-2.29.3-1.77.43-3.57.41-5.37l2.57.21-4.85,15.76"/><path class="cls-9_ecology-98 targetColor" d="M146.72,206.64c-1.61.14-3.03,1.13-3.73,2.59-.65,1.47-.74,3.12-.25,4.65.25.58.36,1.21.34,1.84-.13.53-.38,1.02-.72,1.44-1.28,1.7-2.02,3.75-2.14,5.87-.07,2.18,1.17,4.18,3.15,5.09-1.44,2.65-1.26,5.89.46,8.38,1.83,2.29,5.71,2.87,7.76.69,1.38,2.71,4.7,3.79,7.41,2.4,1.47-.75,2.52-2.11,2.88-3.72,2,.95,4.39.31,5.65-1.51,1.16-1.84,1.43-4.1.73-6.16-.71-2.02-1.78-3.9-3.15-5.54,1.64-1,2.99-2.42,3.9-4.11.74-1.76.24-4.21-1.53-4.9,2.09-3.1,1.27-7.32-1.83-9.41-1.35-.91-2.98-1.3-4.6-1.11-1.37.14-2.41.94-3.76.32-1.05-.47-1.68-1.87-2.56-2.61-3.9-3.25-10.33.81-8,5.79Z" style="fill: rgb(104, 225, 253);"/><path class="cls-8_ecology-98" d="M159.04,236.74c-.62-1.17-.88-2.49-.77-3.81.18-.74.48-1.43.89-2.07.61-1.17,1.35-2.26,2.22-3.26.87-1,2.03-1.69,3.33-1.98-.91,1.75-2.71,2.89-3.74,4.57-1.13,2-1.74,4.25-1.79,6.55.23,4,1.77,8.38,2.58,12.32s1.65,8,2.48,12.01c.87,4.22,1.36,8.77,2.67,12.87.19.57-1.55,2.29-4.4-.43-.22-6.74-.78-13.5-1.52-20.19-.64-5.71-1.44-11.43-2.62-17.04-.4-2.69-1.05-5.33-1.94-7.9-1.07-2.51-4.72-4.05-7.29-4.37h-.54c-.17.24.14.54.4.69,2.29,1.22,5.07,1.89,6.78,3.87.45.53.81,1.14,1.23,1.67-.27-.34-.22-1.68-.48-2.22-.39-.74-.73-1.5-1.02-2.29-.63-1.81-1.41-3.56-2.35-5.22l2.5-1.14s1.57,7.62,3.52,17.14"/><path class="cls-8_ecology-98" d="M207.33,188.8c1.14-1.97,2.85-3.67,3.71-5.81.76-2.26,1.06-4.64.88-7.02.39,2.16.54,4.36.45,6.56,1.76-.55,3.67-.22,5.14.89-2.29.21-4.66.45-6.53,1.77-2.29,1.63-3.27,4.57-3.59,7.36s-.14,5.65-.75,8.4c0-2.06-1.03-4.02-1.26-5.99s.93-4.49,1.94-6.17Z"/><path class="cls-8_ecology-98" d="M194.8,178.62c-.5-1.05-.9-2.29-1.94-2.82l3.78,7.25-5.93,1.89c-.51.16-1.14.57-.94,1.06,1.63.15,3.21-.57,4.83-.8,3.71-.43,7.26,1.62,8.73,5.05-.15-.37.34-1.73.34-2.21.05-.7-.08-1.39-.39-2.02-.51-.74-1.74-1.06-2.49-1.53-2.52-1.35-4.6-3.38-6-5.86Z"/><path class="cls-9_ecology-98 targetColor" d="M177.07,210.59c-1.61.15-3.01,1.15-3.68,2.62-.64,1.47-.7,3.12-.18,4.64.25.57.36,1.19.34,1.82-.12.53-.36,1.02-.7,1.44-1.25,1.71-1.97,3.76-2.05,5.87-.05,2.16,1.21,4.13,3.19,4.99-1.4,2.66-1.18,5.88.55,8.33,1.84,2.29,5.77,2.78,7.71.58,1.44,2.67,4.77,3.66,7.43,2.22,1.4-.76,2.4-2.08,2.75-3.64,2,.92,4.37.25,5.6-1.58,1.13-1.83,1.37-4.08.65-6.11-.73-2-1.82-3.86-3.2-5.49,1.62-1.01,2.94-2.44,3.83-4.13.72-1.76.19-4.18-1.58-4.87,2.05-3.1,1.19-7.28-1.91-9.33-1.36-.89-2.99-1.27-4.6-1.05-1.37.16-2.39.96-3.74.38-1.05-.46-1.69-1.85-2.57-2.57-3.87-3.17-10.23.94-7.85,5.86Z" style="fill: rgb(104, 225, 253);"/><path class="cls-8_ecology-98" d="M193.54,276.92s-1.71-38.86-9.91-52.57l2.48-1.14s11.61,53.52,11.78,54.06-1.5,2.29-4.35-.34Z"/><path class="cls-8_ecology-98" d="M190.64,235.63c.85-1.14,1.61-2.34,2.29-3.59.47-1.4.65-2.88.54-4.35.24,1.34.33,2.71.27,4.07,1.09-.34,2.27-.13,3.19.55-1.43.02-2.82.41-4.05,1.14-1.34,1.15-2.15,2.81-2.23,4.57-.06,1.74-.21,3.48-.46,5.21-.19-1.25-.45-2.49-.78-3.71,0-1.39.43-2.74,1.22-3.89Z"/><path class="cls-8_ecology-98" d="M182.88,229.32c-.32-.65-.56-1.43-1.21-1.75l2.29,4.49-3.67,1.14c-.32.1-.72.37-.58.66,1.01-.05,2.02-.22,2.99-.49,2.3-.28,4.51,1,5.42,3.13-.09-.23.21-1.07.21-1.37.04-.43-.05-.87-.24-1.26-.32-.46-1.07-.65-1.54-.95-1.53-.84-2.8-2.09-3.66-3.61Z"/><path class="cls-6_ecology-98" d="M273.77,381.41l-.71,6.11c-6.1,3.56-12.53,6.55-19.19,8.91-30.16,10.58-63.38,6.5-94.67,0-15.69-3.26-31.91-7.1-47.57-3.7-10.29,2.23-19.62,7.43-28.8,12.57l-36.32,20.39c-6.2-6.55-11.7-13.74-16.4-21.44,7.43-3.84,55.42-28.18,75.24-25.92,21.51,2.46,80.51,12.9,94.65,12.3s73.76-9.22,73.76-9.22Z"/></g></svg>